<svg xmlns="http://www.w3.org/2000/svg" width="4640" height="1440" viewBox="0 0 4640 1440">
      <rect width="4640" height="1440" fill="#7b43d8"/>
      <circle cx="120" cy="980" r="420" fill="#2af1ff" opacity="0.10"/><circle cx="4520" cy="360" r="360" fill="#ffd79b" opacity="0.10"/><path d="M 0 1260 C 180 1130 300 1090 400 1110 L 400 1440 L 0 1440 Z" fill="#1c4cff" opacity="0.12"/><path d="M 4240 1140 C 4370 1100 4510 1120 4640 1220 L 4640 1440 L 4240 1440 Z" fill="#39e4ff" opacity="0.10"/>
      <circle cx="580" cy="220" r="380" fill="#ffd79b" opacity="0.16"/><circle cx="4000" cy="1170" r="420" fill="#25f2ff" opacity="0.14"/><circle cx="3770" cy="250" r="300" fill="#ffffff" opacity="0.06"/><circle cx="920" cy="1260" r="430" fill="#2c7fff" opacity="0.12"/><circle cx="3540" cy="1040" r="210" fill="#ffffff" opacity="0.05"/>

      <rect x="820" y="120" width="3000" height="1200" rx="300" fill="#ffffff" opacity="0.07"/>
      <rect x="920" y="180" width="2800" height="1080" rx="260" fill="#201130" opacity="0.12"/>
      <path d="M 1100 180 C 1850 0 2950 0 3650 260 L 2550 180 Z" fill="#ffffff" opacity="0.08"/>

      <g transform="translate(1120 0) scale(3)">

<rect width="800" height="480" fill="#7b43d8"/>

<circle cx="92" cy="78" r="118" fill="#ffd79b" opacity="0.22"/>
<circle cx="710" cy="376" r="126" fill="#25f2ff" opacity="0.18"/>
<circle cx="676" cy="84" r="92" fill="#ffffff" opacity="0.08"/>
<circle cx="138" cy="410" r="132" fill="#2c7fff" opacity="0.16"/>

<rect x="98" y="54" width="604" height="372" rx="102" fill="#ffffff" opacity="0.18"/>
<rect x="118" y="74" width="564" height="332" rx="90" fill="#24153e" opacity="0.42"/>
<path d="M 162 90 C 292 34 490 38 634 122 L 414 90 Z" fill="#ffffff" opacity="0.18"/>

<rect x="168" y="96" width="114" height="10" rx="5" fill="#ffffff" opacity="0.16"/>
<rect x="168" y="114" width="154" height="10" rx="5" fill="#ffffff" opacity="0.12"/>

<rect x="206" y="120" width="388" height="218" rx="62" fill="#201130" stroke="#f6ebff" stroke-opacity="0.16" stroke-width="6"/>
<path d="M 318 167 L 318 291 L 430 229 Z" fill="#ffffff"/>

<circle cx="520" cy="165" r="12" fill="#ff646e"/>
<rect x="486" y="205" width="58" height="16" rx="8" fill="#ffd7f3" opacity="0.78"/>
<rect x="486" y="234" width="74" height="16" rx="8" fill="#e9c6ff" opacity="0.66"/>

<path d="M 304 350 C 360 381 438 381 494 350 L 486 367 C 435 394 363 394 312 367 Z" fill="#ffffff" opacity="0.88"/>
<path d="M 282 381 C 352 417 448 417 518 381 L 512 394 C 446 427 354 427 288 394 Z" fill="#ffd7a8" opacity="0.72"/>

<path d="M 604 108 L 614 126 L 632 136 L 614 146 L 604 164 L 594 146 L 576 136 L 594 126 Z" fill="#ffffff" opacity="0.82"/>
<path d="M 144 344 L 154 362 L 172 372 L 154 382 L 144 400 L 134 382 L 116 372 L 134 362 Z" fill="#fff2c7" opacity="0.74"/>

<path d="M 566 289 C 636 281 686 303 724 349 L 718 359 C 682 317 634 297 568 304 Z" fill="#8ce8ff" opacity="0.52"/>
<path d="M 562 317 C 628 317 678 339 710 379 L 705 387 C 675 350 627 331 564 330 Z" fill="#d9ffff" opacity="0.42"/>

      </g>

      <path d="M 3300 830 C 3620 820 3850 940 4040 1140" fill="none" stroke="#8ce8ff" stroke-width="36" stroke-linecap="round" opacity="0.16"/>
      <path d="M 650 1010 C 870 900 1060 870 1240 910" fill="none" stroke="#ffd7a8" stroke-width="26" stroke-linecap="round" opacity="0.14"/>
    </svg>
