<svg xmlns="http://www.w3.org/2000/svg" width="124" height="124" viewBox="0 0 124 124" fill="none">
          <defs>
            <linearGradient id="bg-3" x1="16" y1="12" x2="338" y2="112" gradientUnits="userSpaceOnUse">
              <stop stop-color="#111827"/>
              <stop offset="1" stop-color="#8B5CF6"/>
            </linearGradient>
            <clipPath id="clip-3">
              <rect width="124" height="124" rx="28"/>
            </clipPath>
          </defs>
          <g clip-path="url(#clip-3)">
            <rect width="124" height="124" rx="28" fill="url(#bg-3)"/>
            <rect x="16" y="16" width="92" height="92" rx="26" fill="white" fill-opacity="0.13" stroke="white" stroke-opacity="0.2" stroke-width="2"/>
            <path d="M45 45C45 41.7 47.7 39 51 39H70C73.3 39 76 41.7 76 45V69C76 77 69.7 83 62 83C54.3 83 48 77 48 69V47C48 45.9 48.9 45 50 45H71" fill="white" fill-opacity="0.96"/>
<circle cx="56" cy="56" r="3" fill="#18202D"/>
<circle cx="68" cy="56" r="3" fill="#18202D"/>
<path d="M54 72C57 69 59.5 68 62 68C64.5 68 67 69 70 72" stroke="#18202D" stroke-width="4" stroke-linecap="round"/>
<circle cx="84" cy="38" r="7" fill="#A78BFA" fill-opacity="0.6"/>
          </g>
        </svg>
